<?xml version="1.0" encoding="utf-8"?>
<svg viewBox="0 0 500 500" xmlns="http://www.w3.org/2000/svg">
  <path d="M 247.34 50.849 C 235.915 51.7 227.352 53.099 219.299 55.396 C 214.379 56.81 203.648 60.392 199.75 61.918 C 196.599 63.139 182.843 69.804 174.134 74.287 C 158.938 82.125 151.087 89.579 147.424 99.7 C 146.695 101.674 146.385 102.156 145.656 102.51 C 142.05 104.244 138.624 106.943 136.31 109.883 C 132.757 114.462 130.206 121.545 129.406 129.128 C 129.223 130.893 128.986 132.951 128.914 133.723 L 128.769 135.103 L 125.215 137.851 C 115.449 145.449 104.99 155.809 97.267 165.591 C 81.252 185.847 70.502 210.04 66.676 234.296 C 65.309 243.035 65 247.146 65 257.155 C 65 267.162 65.309 271.259 66.676 280.012 C 69.154 295.835 74.929 312.429 83.019 327.239 C 92.511 344.588 106.485 361.262 122.136 373.967 L 126.6 377.583 L 126.964 382.61 C 127.182 385.358 127.474 390.915 127.601 394.963 C 127.93 404.312 128.368 405.919 130.991 407.893 C 132.504 409.035 134.925 410.079 139.881 411.719 C 141.886 412.392 148.226 414.948 153.984 417.404 C 168.596 423.686 173.331 425.37 180.601 426.914 C 185.704 428.005 186.868 428.134 193.518 428.328 L 199.878 428.487 L 201.937 434.77 C 205.672 445.997 208.787 455.106 210.518 459.764 C 212.668 465.514 215.491 472.244 215.948 472.614 C 216.403 473.047 220.884 474.221 225.585 475.153 C 242.529 478.526 268.947 478.976 294.199 476.309 C 302.744 475.393 308.629 472.566 310.724 468.374 C 311.271 467.297 311.307 466.928 311.034 465.322 C 310.888 464.326 310.632 461.981 310.542 460.133 L 310.323 456.76 L 313.02 456.311 C 321.838 454.817 326.247 452.775 328.179 449.306 C 328.816 448.133 328.998 447.363 329.126 445.113 C 329.344 441.66 328.98 439.444 327.068 431.957 C 324.48 422.095 323.97 418.351 324.644 414.803 L 325.026 412.874 L 326.939 412.311 C 331.039 411.107 332.861 409.323 332.861 406.465 L 332.861 405.084 L 334.774 404.312 C 339.328 402.497 344.321 401.661 351.663 401.453 L 356.966 401.326 L 357.821 402.642 C 358.313 403.334 359.188 404.457 359.826 405.098 C 360.955 406.255 361.01 406.273 364.125 406.754 C 373.654 408.201 383.437 408.215 390.889 406.835 C 396.682 405.758 398.615 404.907 401.566 402.128 C 407.049 396.906 410.838 386.883 410.822 377.454 C 410.822 373.278 410.548 371.815 408.634 365.952 C 405.975 357.809 402.513 349.519 399.927 345.101 C 398.323 342.354 395.826 339.944 393.13 338.534 C 392.165 338.049 391.381 337.537 391.381 337.408 C 391.381 337.294 392.073 336.123 392.93 334.788 C 395.353 330.997 400.199 321.985 402.276 317.52 C 409.363 301.938 413.426 286.486 415.065 268.783 C 415.523 263.82 415.523 250.552 415.065 245.523 C 413.463 227.966 409.401 212.432 402.276 196.803 C 399.908 191.615 394.004 181.012 390.78 176.162 C 383.437 165.173 374.491 154.829 364.398 145.689 L 359.68 141.416 L 359.132 136.133 C 357.294 117.576 352.338 102.429 344.886 92.373 C 339.457 85.049 328.251 74.463 318.175 67.169 C 306.206 58.48 291.703 53.597 271.333 51.347 C 267.727 50.946 250.746 50.593 247.375 50.833 L 247.34 50.849 Z M 270.24 60.937 C 281.846 62.591 293.344 65.774 303.674 70.238 C 310.943 73.387 314.623 75.764 320.562 81.178 C 324.716 84.969 335.356 96.646 335.958 98.092 C 336.176 98.543 336.05 98.574 334.737 98.414 C 329.199 97.772 326.466 97.964 323.277 99.298 C 319.36 100.904 317.155 103.635 316.991 107.024 C 316.956 107.635 317.028 108.23 317.12 108.31 C 317.21 108.39 317.793 108.149 318.431 107.78 C 320.817 106.332 322.677 105.899 326.611 105.899 C 329.909 105.899 330.529 105.979 333.133 106.784 C 337.288 108.02 340.385 109.723 343.593 112.55 C 349.44 117.674 351.444 123.779 352.537 139.954 C 353.084 147.761 353.266 163.39 352.865 168.29 C 351.134 189.864 344.649 209.862 334.501 225.06 C 332.259 228.433 324.444 238.746 322.548 240.833 C 320.035 243.58 316.754 246.183 313.11 248.271 C 302.162 254.553 290.645 258.649 279.879 260.142 C 275.488 260.736 267.289 260.736 263.39 260.142 C 259.235 259.5 253.06 257.572 247.466 255.177 C 232.891 248.898 223.089 240.576 207.365 221.092 L 205.435 218.682 L 205.617 220.015 C 206.546 226.007 210.499 232.145 218.497 240.19 C 227.735 249.443 234.513 254.888 240.362 257.782 C 241.455 258.31 242.548 258.937 242.784 259.146 C 243.185 259.467 243.021 259.5 241.726 259.338 C 240.871 259.258 238.521 259.098 236.426 259.017 C 230.268 258.743 226.187 259.869 224.145 262.359 L 223.235 263.483 L 220.047 263.322 C 202.374 262.439 191.679 259.547 185.302 253.91 C 178.36 247.788 168.413 227.469 166.227 214.907 C 165.498 210.843 165.679 210.441 169.142 207.132 C 172.968 203.502 173.624 202.168 172.713 199.839 C 172.385 199.005 172.312 198.988 171.017 199.15 C 169.252 199.358 168.268 199.823 165.025 202.009 C 163.531 203.005 161.909 203.967 161.381 204.111 C 158.556 205.076 153.928 204.915 150.648 203.743 C 142.487 200.835 135.127 191.421 132.921 181.126 C 132.283 178.216 132.283 172.997 132.921 170.732 C 134.379 165.512 138.26 160.82 143.235 158.252 C 146.841 156.371 151.816 155.519 156.097 155.97 C 162.947 156.74 166.736 160.789 169.524 170.345 L 170.527 173.769 L 173.806 173.721 C 179.235 173.672 183.626 172.386 185.302 170.378 C 185.903 169.688 185.903 169.606 185.393 166.637 C 185.084 164.982 184.283 161.56 183.554 159.07 C 180.091 147.005 180.128 145.095 184.135 128.196 C 185.994 120.389 186.468 117.177 186.505 113.097 C 186.54 109.273 185.994 106.252 184.773 103.073 C 184.355 101.997 184.008 100.808 184.008 100.421 C 184.008 99.537 186.032 96.278 188.564 93.129 C 191.077 89.949 199.058 82.864 203.721 79.716 C 208.15 76.695 216.311 71.942 221.613 69.29 C 237.445 61.371 243.04 59.958 257.834 60.183 C 264.101 60.263 266.232 60.392 270.259 60.955 L 270.24 60.937 Z M 209.606 68.344 C 211.21 69.466 209.972 71.443 207.147 72.246 C 206.054 72.535 205.088 73.097 203.904 74.094 C 202.957 74.866 200.807 76.439 199.077 77.564 C 194.32 80.712 192.735 82.302 189.165 87.539 C 185.284 93.209 183.408 95.395 181.641 96.392 C 179.854 97.403 178.215 97.594 174.752 97.224 C 171.109 96.791 169.233 97.065 162.692 98.959 C 156.99 100.583 154.876 100.967 154.876 100.373 C 154.876 100.164 155.551 98.976 156.387 97.787 C 162.237 89.098 173.224 80.969 187.762 74.526 C 193.009 72.199 196.16 71.025 202.009 69.227 C 207.111 67.651 208.349 67.523 209.587 68.344 L 209.606 68.344 Z M 178.562 103.523 C 179.746 106.268 180.147 108.404 180.292 112.774 C 180.437 117.85 180.164 120.743 178.688 129.128 C 177.049 138.54 176.902 139.84 176.902 144.627 C 176.902 149.69 177.122 150.94 178.871 156.212 C 180.237 160.322 180.656 163.503 180.055 164.819 C 179.636 165.721 178.652 166.283 176.994 166.555 L 175.901 166.748 L 175.683 164.934 C 175.136 160.147 172.403 155.842 167.976 152.742 C 163.603 149.69 158.793 148.195 153.218 148.195 C 149.338 148.195 146.604 148.724 142.796 150.283 C 141.429 150.813 140.282 151.214 140.191 151.135 C 139.79 150.781 139.335 143.568 139.317 137.561 C 139.317 132.082 139.408 130.204 139.863 128.099 C 141.356 120.967 143.963 116.872 149.83 112.518 C 155.987 107.972 162.802 105.064 170.563 103.635 C 174.407 102.943 174.752 102.879 176.666 102.831 C 178.123 102.799 178.27 102.863 178.579 103.523 L 178.562 103.523 Z M 129.934 147.343 C 130.244 147.585 130.426 148.275 130.443 149.191 C 130.443 149.994 130.572 150.653 130.717 150.653 C 130.844 150.653 130.935 151.248 130.935 151.986 C 130.935 152.708 130.808 153.32 130.663 153.32 C 130.534 153.32 130.48 153.609 130.534 153.929 C 130.625 154.298 130.48 154.765 130.206 155.006 C 129.934 155.215 129.715 155.537 129.715 155.697 C 129.715 155.857 129.587 155.987 129.406 155.987 C 129.259 155.987 129.095 156.146 129.095 156.354 C 129.095 156.564 128.876 156.788 128.64 156.885 C 128.403 156.967 128.185 157.206 128.185 157.415 C 128.185 157.625 128.002 157.93 127.765 158.024 C 127.365 158.234 125.16 163.825 125.16 164.66 C 125.16 164.869 125.069 165.062 124.942 165.062 C 124.795 165.062 124.705 165.463 124.668 165.914 C 124.668 166.395 124.486 168.242 124.267 170.009 C 123.32 177.816 125.78 188.612 130.354 196.74 C 135.6 206.024 144.599 212.53 154.694 214.36 L 156.516 214.714 L 156.608 215.759 C 157.062 221.444 159.794 228.528 163.493 233.637 C 167.282 238.874 168.467 241.975 167.593 244.335 C 166.954 246.07 165.224 247.195 156.826 251.42 C 139.061 260.367 126.635 266.969 120.751 270.632 C 119.093 271.676 115.267 273.65 112.298 274.984 C 104.536 278.518 102.149 280.655 101.621 284.559 C 101.256 287.306 102.805 292.784 106.23 300.991 C 107.323 303.641 109.018 307.801 109.984 310.243 C 110.949 312.702 113.044 317.617 114.629 321.198 C 118.748 330.548 119.822 333.712 121.789 342.097 C 123.12 347.688 125.451 361.39 125.451 363.448 C 125.451 364.973 116.834 356.732 109.6 348.283 C 94.114 330.21 83.474 309.25 78.5 287.016 C 77.226 281.33 76.26 275.499 76.46 274.745 C 76.588 274.342 76.514 274.101 76.315 274.101 C 76.077 274.101 76.004 273.699 76.132 272.767 C 76.26 271.886 76.187 271.433 75.986 271.433 C 75.786 271.433 75.714 270.872 75.859 269.7 C 76.004 268.479 75.95 267.965 75.714 267.965 C 75.476 267.965 75.439 267.273 75.585 265.426 C 75.731 263.66 75.714 262.888 75.458 262.888 C 75.203 262.888 75.13 261.121 75.13 257.138 C 75.13 253.155 75.222 251.386 75.458 251.386 C 75.695 251.386 75.731 250.617 75.585 248.85 C 75.439 247.001 75.458 246.31 75.714 246.31 C 75.968 246.31 76.023 245.796 75.859 244.576 C 75.714 243.403 75.768 242.841 75.986 242.841 C 76.204 242.841 76.26 242.392 76.132 241.507 C 76.004 240.674 76.077 240.175 76.26 240.175 C 76.479 240.175 76.532 239.693 76.406 238.971 C 76.35 238.297 76.406 237.765 76.551 237.765 C 76.697 237.765 76.769 237.331 76.697 236.834 C 76.643 236.319 76.697 235.902 76.842 235.902 C 76.987 235.902 77.062 235.467 76.987 234.971 C 76.933 234.456 76.987 234.039 77.135 234.039 C 77.28 234.039 77.371 233.669 77.28 233.236 C 77.226 232.786 77.28 232.433 77.407 232.433 C 77.553 232.433 77.717 231.741 77.735 230.905 C 77.772 230.053 77.917 229.332 78.063 229.285 C 78.209 229.252 78.282 228.913 78.19 228.561 C 78.136 228.19 78.19 227.886 78.318 227.886 C 78.464 227.886 78.629 227.324 78.629 226.634 C 78.664 225.943 78.81 225.316 78.992 225.27 C 79.175 225.219 79.266 225.027 79.175 224.835 C 78.755 223.901 84.367 206.553 85.151 206.28 C 85.296 206.234 85.423 205.926 85.423 205.637 C 85.423 204.869 86.663 201.944 86.973 201.944 C 87.118 201.944 87.246 201.655 87.246 201.269 C 87.246 200.883 87.392 200.595 87.556 200.595 C 87.737 200.595 87.866 200.305 87.866 199.921 C 87.866 199.534 88.011 199.244 88.175 199.244 C 88.358 199.244 88.484 198.956 88.484 198.603 C 88.484 198.233 88.703 197.766 88.94 197.526 C 89.177 197.317 89.396 196.997 89.396 196.803 C 89.396 196.241 90.123 194.7 90.361 194.7 C 90.489 194.7 90.598 194.506 90.598 194.298 C 90.598 193.783 92.182 190.876 92.566 190.634 C 92.748 190.522 93.204 189.8 93.605 189.028 C 95.426 185.334 95.882 184.563 96.283 184.434 C 96.501 184.354 96.683 184.033 96.683 183.745 C 96.683 183.455 96.956 182.989 97.284 182.748 C 97.612 182.474 97.887 182.072 97.887 181.817 C 97.887 181.574 98.123 181.14 98.468 180.885 C 98.78 180.611 99.106 180.081 99.234 179.665 C 99.326 179.262 99.562 178.941 99.726 178.941 C 99.908 178.941 100.037 178.748 100.037 178.539 C 100.037 178.331 100.163 178.137 100.308 178.137 C 100.454 178.137 100.674 177.847 100.765 177.462 C 100.892 177.094 101.092 176.787 101.256 176.787 C 101.438 176.787 101.565 176.596 101.565 176.387 C 101.565 176.178 101.693 175.984 101.84 175.984 C 101.985 175.984 102.203 175.696 102.294 175.31 C 102.423 174.941 102.622 174.635 102.786 174.635 C 102.969 174.635 103.096 174.444 103.096 174.234 C 103.096 174.026 103.242 173.832 103.406 173.832 C 103.588 173.832 103.715 173.638 103.715 173.431 C 103.715 173.222 103.862 173.029 104.026 173.029 C 104.207 173.029 104.335 172.835 104.335 172.627 C 104.335 172.418 104.482 172.226 104.646 172.226 C 104.826 172.226 104.955 172.034 104.955 171.823 C 104.955 171.584 105.173 171.341 105.41 171.262 C 105.647 171.15 105.865 170.942 105.865 170.732 C 105.865 170.523 106.012 170.364 106.176 170.364 C 106.357 170.364 106.485 170.201 106.485 169.994 C 106.485 169.784 106.704 169.558 106.941 169.464 C 107.178 169.382 107.396 169.142 107.396 168.9 C 107.396 168.692 107.542 168.501 107.706 168.501 C 107.888 168.501 108.015 168.338 108.015 168.131 C 108.015 167.922 108.235 167.695 108.471 167.599 C 108.709 167.519 108.927 167.279 108.927 167.07 C 108.927 166.877 109.145 166.637 109.381 166.54 C 109.618 166.459 109.839 166.218 109.839 166.01 C 109.839 165.816 110.056 165.576 110.293 165.478 C 110.53 165.398 110.749 165.159 110.749 164.949 C 110.749 164.709 111.023 164.42 111.35 164.258 C 111.678 164.098 111.951 163.825 111.951 163.648 C 111.951 163.471 112.225 163.166 112.552 162.973 C 112.88 162.782 113.154 162.492 113.154 162.299 C 113.154 162.104 113.426 161.816 113.754 161.626 C 114.082 161.431 114.356 161.141 114.356 160.949 C 114.356 160.757 114.774 160.34 115.267 160.018 C 115.777 159.663 116.178 159.278 116.178 159.086 C 116.178 158.893 116.67 158.412 117.235 158.01 C 117.817 157.608 118.292 157.126 118.292 156.967 C 118.292 156.804 119.112 156.002 120.112 155.23 C 121.116 154.427 121.934 153.656 121.934 153.511 C 121.934 153.143 127.784 147.921 128.185 147.921 C 128.403 147.921 128.605 147.681 128.694 147.392 C 128.876 146.75 129.387 146.701 130.026 147.279 L 129.934 147.343 Z M 364.217 158.861 C 386.734 182.057 400.271 209.862 404.262 241.266 C 404.899 246.505 405.174 261.909 404.717 267.886 C 403.205 287.129 397.739 305.409 388.411 322.789 C 386.627 326.083 382.526 332.813 380.959 334.983 L 380.177 336.074 L 377.243 336.428 C 369.664 337.263 358.696 340.523 348.931 344.846 C 345.997 346.147 345.596 346.242 345.596 345.648 C 345.596 345.44 346.598 342.821 347.836 339.85 C 352.483 328.62 357.019 316.54 361.993 302.212 C 363.504 297.875 365.966 290.903 367.46 286.711 C 370.757 277.442 371.467 274.68 371.303 271.208 C 371.121 266.022 369.299 264.239 348.656 248.591 C 342.935 244.255 338.381 240.271 337.561 238.841 C 336.378 236.834 337.471 233.845 341.679 227.565 C 344.867 222.842 346.56 219.549 348.584 214.12 C 353.139 202.088 356.4 188.916 358.13 175.647 C 358.805 170.748 359.516 162.17 359.516 159.473 C 359.516 156.66 359.788 155.198 360.262 155.198 C 360.444 155.198 362.231 156.853 364.198 158.861 L 364.217 158.861 Z M 332.078 247.966 C 333.08 248.72 337.379 252.318 341.624 255.982 C 345.869 259.644 350.879 263.66 352.683 264.912 C 357.565 268.285 359.934 270.39 361.045 272.43 C 362.012 274.133 362.012 274.166 361.83 277.152 C 361.61 280.254 360.554 284.993 358.13 293.86 C 355.015 305.12 349.951 318.421 342.462 334.95 C 337.579 345.697 336.487 347.158 332.733 348.121 C 329.635 348.892 328.98 348.973 320.855 349.246 C 313.366 349.519 310.851 349.84 308.574 350.854 C 307.154 351.496 306.752 351.528 306.752 350.964 C 306.752 350.402 308.902 347.173 320.398 330.548 C 329.363 317.585 335.958 307.851 337.16 305.762 C 337.616 305.04 337.579 304.91 337.069 304.188 C 336.76 303.755 335.649 302.533 334.554 301.457 C 332.587 299.496 331.605 298.116 331.605 297.264 C 331.605 297.025 332.095 295.578 332.641 294.115 C 336.924 283.015 334.737 264.896 328.397 258.663 C 327.012 257.298 324.571 255.964 323.478 255.964 C 322.658 255.964 320.38 254.568 320.38 254.071 C 320.38 253.796 321.71 252.705 323.495 251.484 C 325.19 250.329 327.194 248.753 327.959 248.013 C 328.725 247.291 329.545 246.682 329.781 246.647 C 330.018 246.647 331.056 247.242 332.059 247.981 L 332.078 247.966 Z M 174.189 256.013 C 174.935 256.656 177.376 258.953 179.526 261.17 C 181.676 263.37 184.226 265.957 185.157 266.889 C 188.254 270.021 195.213 273.699 210.682 280.38 L 220.229 284.526 L 220.63 286.696 C 221.577 292.059 227.115 309.041 229.303 313.071 C 232.18 318.469 235.642 320.042 240.908 318.357 C 242.054 317.988 243.185 317.68 243.368 317.68 C 244.425 317.68 243.13 320.252 240.526 323.288 C 237.1 327.304 236.371 329.856 238.01 332.058 C 238.885 333.232 241.619 334.918 245.372 336.605 C 254.591 340.781 265.741 345.47 271.225 347.481 C 274.74 348.764 277.657 349.986 277.657 350.146 C 277.657 350.387 276.326 350.515 272.901 350.66 C 247.466 351.591 232.454 352.637 208.713 355.124 C 202.009 355.816 197.946 356.137 197.673 355.976 C 196.981 355.609 196.16 353.406 195.796 351.029 C 195.286 347.334 195.432 335.639 196.107 328.091 C 196.435 324.347 196.706 320.235 196.706 318.981 C 196.706 312.251 193.045 312.299 191.643 319.064 C 191.151 321.552 191.223 323.497 192.154 332.476 C 192.826 338.548 192.936 345.89 192.463 348.667 C 192.28 349.634 191.879 351.207 191.515 352.202 C 190.969 353.888 190.84 354.017 190.094 354.017 C 188.854 353.985 186.942 353.133 183.644 351.079 C 179.727 348.652 178.215 347.976 177.887 348.459 C 177.158 349.455 177.85 351.125 179.838 353.167 C 181.748 355.094 182.041 356.78 180.674 358.113 C 179.983 358.87 179.399 359.045 176.94 359.512 C 172.968 360.265 171.238 361.375 171.238 363.254 C 171.238 363.897 171.292 363.929 173.151 363.929 C 174.189 363.929 177.631 363.799 180.857 363.607 C 186.669 363.318 189.547 363.448 192.498 364.202 L 193.593 364.476 L 193.81 366.692 C 194.484 373.662 196.962 391.815 199.478 407.558 C 200.442 413.836 201.262 419.108 201.262 419.236 C 201.262 419.877 193.646 419.236 187.324 418.062 C 177.139 416.167 168.832 413.163 151.705 405.229 C 146.221 402.69 140.646 400.152 139.371 399.59 L 137.003 398.576 L 137.003 396.151 C 137.003 390.594 135.782 375.75 134.543 365.81 C 131.064 337.841 123.904 312.315 113.918 292.252 C 112.771 289.955 111.824 287.899 111.824 287.708 C 111.824 287.498 114.648 285.457 118.091 283.193 C 138.168 269.908 151.705 262.455 166.244 256.706 C 168.76 255.709 171.254 254.922 171.803 254.888 C 172.567 254.888 173.132 255.162 174.206 256.013 L 174.189 256.013 Z M 322.749 264.367 C 325.846 265.764 328.032 272.012 328.962 282.053 C 329.455 287.529 328.561 292.879 326.848 294.937 L 326.302 295.546 L 321.328 295.256 C 313.293 294.807 303.108 293.473 298.316 292.237 L 296.988 291.914 L 297.023 287.772 C 297.06 285.507 297.079 283.548 297.079 283.434 C 297.079 283.16 299.173 282.261 300.267 282.035 C 301.451 281.829 304.876 281.522 305.969 281.554 C 306.424 281.586 306.789 281.475 306.789 281.362 C 306.789 281.088 303.491 280.236 301.778 280.109 C 301.105 280.028 300.394 279.916 300.176 279.868 C 299.993 279.818 299.173 279.868 298.39 279.981 C 296.513 280.3 296.057 280.028 295.566 278.486 C 295.346 277.796 294.891 276.753 294.601 276.156 C 294.108 275.306 294.09 275.081 294.418 274.904 C 294.636 274.775 294.929 274.662 295.093 274.662 C 295.22 274.662 297.734 273.282 300.704 271.531 C 309.594 266.375 313.402 264.527 316.262 264.11 C 316.81 263.997 317.265 263.917 317.301 263.9 C 317.61 263.627 322.038 264.014 322.784 264.349 L 322.749 264.367 Z M 299.792 264.382 C 299.792 264.592 299.519 264.896 299.21 265.056 C 298.882 265.185 296.112 267.064 293.088 269.201 L 287.531 273.072 L 285.837 273.121 C 279.35 273.314 274.414 272.607 270.587 270.984 C 267.653 269.7 264.611 267.852 264.611 267.323 C 264.611 266.792 265.978 266.552 266.98 266.889 C 268.491 267.418 272.008 267.98 274.14 267.98 C 277.073 267.98 281.846 267.307 287.804 266.053 C 292.779 265.009 298.134 264.045 299.264 263.997 C 299.538 263.965 299.775 264.157 299.775 264.367 L 299.792 264.382 Z M 199.841 265.7 C 202.046 266.342 205.927 266.856 212.248 267.323 C 220.867 267.932 220.684 267.915 220.684 268.849 C 220.684 269.281 220.41 270.567 220.1 271.676 C 219.772 272.832 219.409 274.373 219.282 275.129 C 219.099 276.445 219.007 276.543 218.279 276.543 C 216.895 276.543 211.484 275.257 208.095 274.166 C 199.878 271.433 194.957 268.077 195.668 265.635 C 196.034 264.382 196.362 264.222 197.436 264.783 C 197.982 265.056 199.077 265.458 199.86 265.7 L 199.841 265.7 Z M 236.953 266.632 C 237.281 266.76 237.628 266.839 237.72 266.792 C 238.139 266.421 250.054 269.893 254.19 271.596 C 260.549 274.246 262.224 275.017 265.595 276.978 C 267.507 278.1 270.751 279.195 272.537 279.354 C 272.955 279.385 273.448 279.434 273.629 279.434 C 273.811 279.468 273.957 279.964 273.994 280.525 C 274.048 281.522 273.957 281.62 272.665 282.261 C 271.371 282.905 268.51 283.787 268.054 283.707 C 267.835 283.674 266.961 283.867 263.5 284.719 C 261.896 285.121 261.531 285.795 263.081 285.522 C 264.849 285.201 273.685 287.4 274.595 288.381 C 274.777 288.574 274.832 289.747 274.74 291.37 L 274.559 294.068 L 273.319 294.839 C 272.646 295.29 269.767 297.328 266.925 299.416 C 264.101 301.473 260.675 303.884 259.345 304.702 C 253.716 308.283 241.71 312.349 236.735 312.349 C 235.279 312.349 234.951 312.235 234.221 311.577 C 233.729 311.127 233.309 310.501 233.256 310.163 C 233.164 309.601 231.306 304.927 230.686 303.675 C 229.375 301.071 227.206 295.256 226.897 293.57 C 226.806 293.088 226.679 292.413 226.588 292.044 C 225.894 288.976 225.549 281.024 225.985 276.817 C 226.077 275.724 226.168 274.631 226.205 274.408 C 226.386 272.43 228.118 268.736 229.356 267.725 C 230.632 266.68 232.144 266.23 234.367 266.277 C 235.497 266.31 236.663 266.471 237.009 266.632 L 236.953 266.632 Z M 287.002 278.149 C 288.659 278.792 289.025 279.144 289.935 280.879 C 291.065 283.001 290.992 285.845 289.808 287.802 C 288.587 289.891 286.838 290.694 283.65 290.712 C 279.952 290.712 280.043 290.759 279.077 286.856 C 278.585 285.008 278.313 283.355 278.403 283.225 C 278.493 283.065 278.439 282.952 278.275 282.952 C 278.058 282.952 277.947 282.278 277.947 281.266 C 277.947 279.707 278.001 279.579 278.804 279.225 C 282.629 277.539 284.706 277.282 286.984 278.133 L 287.002 278.149 Z M 293.616 294.967 C 294.308 295.256 295.984 296.139 297.316 296.976 C 300.321 298.823 302.616 299.786 304.621 299.995 L 306.168 300.158 L 306.168 301.763 C 306.168 302.662 306.042 304.732 305.859 306.34 C 305.714 307.979 305.44 312.251 305.258 315.85 C 304.802 324.959 304.293 329.424 302.799 337.504 C 302.162 341.086 301.196 344.058 300.685 344.139 C 300.103 344.219 296.586 337.907 291.466 327.481 C 285.016 314.357 281.41 308.317 276.89 302.952 C 275.797 301.633 274.96 300.413 275.015 300.219 C 275.069 300.013 275.797 299.128 276.618 298.212 L 278.13 296.575 L 279.496 296.766 C 281.736 297.056 282.648 296.926 285.927 295.675 C 289.499 294.31 291.503 294.131 293.634 294.983 L 293.616 294.967 Z M 321.783 299.674 C 324.06 300.205 326.721 301.457 328.505 302.855 C 330.329 304.268 332.242 306.405 332.242 307.032 C 332.242 307.562 323.204 321.407 317.847 329.102 C 312.728 336.46 305.714 345.295 304.785 345.615 C 304.182 345.824 304.239 345.455 305.277 341.952 C 307.463 334.436 309.212 323.369 310.288 310.486 C 310.525 307.465 310.743 304.011 310.743 302.789 C 310.743 300.622 310.779 300.572 311.599 300.301 C 314.806 299.208 318.759 298.968 321.82 299.659 L 321.783 299.674 Z M 271.352 306.405 C 277.893 314.566 281.938 321.426 290.263 338.884 C 291.994 342.549 293.416 345.697 293.416 345.922 C 293.416 346.565 292.541 346.402 287.295 344.828 C 277.893 341.97 269.165 338.708 258.818 334.164 C 251.566 330.982 244.606 327.64 244.606 327.384 C 244.606 327.271 244.879 326.387 245.244 325.456 C 246.884 320.991 250.399 316.668 255.337 312.991 C 258.252 310.824 268.71 304.382 269.348 304.365 C 269.53 304.365 270.441 305.296 271.352 306.42 L 271.352 306.405 Z M 385.715 344.684 C 388.83 346.018 391.982 348.782 393.477 351.496 C 395.39 354.965 397.411 361.005 400.363 371.704 C 401.585 376.138 401.73 377.069 401.875 380.796 C 402.002 384.408 401.929 385.23 401.383 387.284 C 399.798 393.165 395.99 397.678 390.835 399.815 C 385.77 401.918 372.998 402.787 366.457 401.469 C 364.78 401.148 364.362 400.954 364.362 400.554 C 364.362 399.702 368.243 398.627 375.513 397.454 C 381.36 396.521 384.038 395.975 384.221 395.718 C 384.366 395.51 383.802 395.348 380.577 394.641 C 378.664 394.208 368.99 394.208 363.45 394.611 C 361.209 394.801 357.146 395.011 354.45 395.093 L 349.568 395.285 L 349.385 393.84 C 349.294 393.036 348.785 388.651 348.256 384.104 C 346.945 372.346 345.596 364.701 343.864 359.382 L 343.374 357.92 L 344.685 356.925 C 347.199 355.03 352.994 352.748 363.397 349.648 C 369.282 347.881 373.071 346.517 375.438 345.295 C 378.226 343.85 379.138 343.607 381.506 343.69 C 383.147 343.77 384.111 343.978 385.715 344.651 L 385.715 344.684 Z M 335.266 358.483 C 336.413 359.094 339.274 365.92 340.567 371.046 C 342.042 376.924 343.3 388.024 343.082 393.581 L 342.99 396.329 L 339.055 397.501 C 336.905 398.144 334.263 398.755 333.244 398.835 L 331.384 399.026 L 331.203 397.869 C 331.112 397.228 330.802 394.819 330.565 392.553 C 330.291 390.288 329.253 383.784 328.251 378.112 C 326.43 367.719 325.245 360.171 325.245 358.997 C 325.245 358.386 325.373 358.353 327.614 358.243 C 330.729 358.082 334.791 358.208 335.247 358.451 L 335.266 358.483 Z M 274.176 358.611 C 281.118 358.98 293.616 360.251 294.254 360.62 C 294.399 360.7 295.22 366.692 295.529 369.84 C 295.948 374.225 296.112 376.682 296.622 387.88 C 297.079 396.906 297.205 398.417 298.134 407.124 C 298.718 412.472 299.137 419.475 299.501 429.983 C 300.048 445.757 300.722 453.498 302.106 460.825 C 302.507 463.009 302.799 464.841 302.78 464.855 C 302.471 465.017 297.587 466.108 294.655 466.704 C 285.946 468.388 277.436 469.112 266.907 469.112 C 254.682 469.081 245.389 468.278 234.312 466.334 C 229.303 465.45 221.121 463.636 220.829 463.346 C 220.775 463.297 219.864 460.727 218.771 457.628 C 210.973 435.459 205.527 413.662 201.299 387.896 C 199.604 377.663 197.874 364.459 198.146 364.234 C 198.474 363.961 214.18 361.729 221.285 360.892 C 231.068 359.801 242.092 358.949 251.747 358.547 C 256.539 358.338 269.858 358.386 274.176 358.627 L 274.176 358.611 Z M 315.315 360.345 C 316.956 365.712 318.049 373.503 319.506 390.288 C 320.016 396.006 320.544 401.679 320.691 402.851 C 320.871 404.248 320.871 405.034 320.653 405.147 C 320.344 405.308 311.927 406.673 306.26 407.477 C 303.983 407.799 302.835 407.847 302.835 407.685 C 302.835 407.524 302.616 405.034 302.379 402.174 C 301.378 390.451 300.994 382.77 300.794 372.024 C 300.704 365.824 300.704 360.748 300.794 360.748 C 300.886 360.748 301.833 360.555 302.854 360.314 C 305.13 359.801 309.285 359.462 312.637 359.512 C 315.061 359.544 315.061 359.544 315.298 360.345 L 315.315 360.345 Z M 314.531 413.836 C 315.078 413.967 315.224 414.27 315.388 415.621 C 315.516 416.521 316.353 420.408 317.265 424.232 C 319.542 433.805 320.144 437.226 320.325 441.87 L 320.508 445.885 L 317.047 446.88 C 315.134 447.41 312.929 447.973 312.072 448.133 C 310.414 448.421 305.258 448.823 305.258 448.664 C 305.258 448.615 304.985 444.649 304.621 439.876 C 304.293 435.089 303.928 427.605 303.838 423.218 L 303.655 415.285 L 304.621 415.285 C 305.168 415.285 306.935 414.996 308.539 414.641 C 310.14 414.27 311.908 413.918 312.382 413.871 C 312.892 413.822 313.438 413.742 313.585 413.742 C 313.768 413.709 314.186 413.773 314.531 413.854 L 314.531 413.836 Z M 238.557 101.66 C 236.006 102.027 232.435 103.442 229.01 105.45 C 226.131 107.104 221.468 111.28 219.518 113.898 C 216.912 117.402 215.218 122.075 215.674 124.486 C 215.892 125.562 217.277 127.135 218.007 127.135 C 218.225 127.135 218.954 126.139 219.608 124.918 C 222.197 120.261 226.131 115.778 229.739 113.416 C 231.834 112.052 235.115 110.752 237.865 110.157 C 239.595 109.788 240.908 109.723 244.387 109.835 C 246.756 109.915 249.034 110.043 249.416 110.157 C 249.998 110.317 250.146 110.204 250.547 109.385 C 251.274 107.891 251.129 106.766 250.036 105.321 C 247.904 102.541 243.094 100.985 238.576 101.66 L 238.557 101.66 Z M 336.487 130.524 C 336.487 134.155 337.489 137.738 340.186 143.681 C 341.004 145.496 341.642 147.232 341.569 147.552 C 341.424 148.403 338.69 148.997 333.353 149.32 C 328.652 149.61 328.196 149.673 325.956 150.172 C 324.77 150.443 324.644 150.54 324.644 151.263 C 324.644 153.834 326.74 156.179 329.672 156.949 C 334.427 158.155 342.589 155.952 346.889 152.355 C 349.531 150.106 349.495 150.266 347.345 147.12 C 345.596 144.581 342.08 138.38 338.399 131.345 C 337.579 129.737 336.815 128.451 336.704 128.451 C 336.559 128.451 336.468 129.384 336.468 130.509 L 336.487 130.524 Z M 259.017 130.045 C 258.289 133.817 260.984 141.111 265.831 148.436 C 266.925 150.058 267.653 151.457 267.598 151.81 C 267.38 153.191 262.716 154.346 258.746 153.994 C 257.56 153.881 254.736 153.511 252.495 153.157 C 247.029 152.309 246.301 152.309 245.862 153.24 C 245.007 155.053 244.952 155.745 245.444 156.822 C 246.774 159.808 252.167 161.608 259.838 161.608 C 266.177 161.608 268.637 160.884 272.209 157.978 C 273.701 156.74 274.121 156.212 274.504 154.99 C 275.051 153.335 274.923 151.682 274.14 150.331 C 273.865 149.849 272.1 148.084 270.259 146.38 C 266.433 142.845 265.612 141.673 262.626 135.472 C 261.495 133.144 260.293 130.734 259.929 130.075 L 259.235 128.903 L 259.017 130.059 L 259.017 130.045 Z M 298.226 134.911 C 297.77 135.118 297.679 135.552 297.679 137.126 C 297.679 144.453 302.507 154.074 310.96 163.743 C 313.148 166.203 320.489 173.977 323.478 176.98 C 326.502 180.034 327.541 182.619 326.775 185.445 C 326.283 187.261 325.082 189.38 324.407 189.591 C 324.133 189.67 321.035 190.924 317.52 192.37 C 309.394 195.678 306.662 196.674 303.273 197.526 C 299.245 198.523 296.204 198.86 292.943 198.683 C 287.659 198.408 286.585 197.509 284.962 191.967 C 284.451 190.232 284.015 188.739 284.015 188.707 C 284.015 188.659 283.905 188.594 283.705 188.594 C 283.195 188.594 281.919 191.164 281.574 192.98 C 280.936 196.129 282.21 200.096 284.688 202.633 L 285.746 203.709 L 290.319 203.792 C 302.69 204.063 314.112 200.803 328.069 193.076 L 332.587 190.57 L 333.098 188.723 C 333.37 187.711 333.954 186.024 334.373 185.013 C 334.791 183.97 335.321 182.442 335.503 181.622 C 336.104 179.052 335.867 178.65 330.747 174.219 C 317.557 162.828 303.182 145.225 301.468 138.3 C 301.141 136.999 300.685 135.954 300.157 135.441 C 299.374 134.589 299.008 134.509 298.19 134.926 L 298.226 134.911 Z M 148.609 163.985 C 145.694 164.869 143.506 166.957 142.36 169.994 C 141.631 171.874 141.685 171.968 142.997 170.926 C 144.819 169.367 145.473 169.077 147.206 169.077 C 148.062 169.077 148.882 169.189 148.973 169.351 C 149.063 169.478 148.791 170.603 148.336 171.809 C 147.661 173.656 147.497 174.635 147.37 177.657 C 147.224 181.847 147.699 184.547 149.101 187.117 C 150.885 190.41 150.849 190.457 151.013 183.488 C 151.159 178.041 151.251 177.014 151.834 175.439 C 152.89 172.53 154.948 171.294 157.463 172.018 C 158.975 172.467 160.16 173.817 162.218 177.527 C 163.257 179.375 164.514 181.3 165.06 181.864 L 166.026 182.861 L 166.244 181.012 C 167.192 173.334 162.237 166.073 154.639 164.017 C 152.251 163.375 150.667 163.344 148.609 163.985 Z M 334.81 201.059 C 323.259 206.459 319.232 207.854 312.71 208.786 C 311.235 208.995 309.886 209.317 309.739 209.51 C 309.468 209.912 309.413 216.352 309.686 217.798 C 309.868 218.794 309.922 218.81 311.143 218.81 C 313.202 218.81 317.757 217.846 320.544 216.867 C 327.541 214.36 334.427 208.288 339.365 200.289 C 339.965 199.294 340.422 198.506 340.367 198.506 C 340.331 198.506 337.815 199.662 334.81 201.077 L 334.81 201.059 Z M 259.655 206.28 C 261.751 209.702 267.289 213.445 273.575 215.581 C 281.118 218.2 292.978 219.823 302.215 219.566 L 305.094 219.486 L 305.039 215.87 C 305.004 213.895 304.857 211.725 304.729 211.051 L 304.457 209.847 L 294.035 209.687 C 276.873 209.413 268.054 208.225 259.345 205.028 C 258.853 204.835 258.891 204.995 259.655 206.264 L 259.655 206.28 Z M 253.206 214.297 C 251.657 214.699 251.457 215.372 252.476 216.562 C 252.968 217.155 254.061 218.2 254.936 218.939 C 255.793 219.661 257.724 221.799 259.235 223.662 C 260.748 225.524 262.806 227.934 263.845 229.011 C 269.202 234.536 275.124 236.448 286.911 236.448 C 296.586 236.448 305.458 234.874 308.501 232.593 C 309.449 231.902 311.618 229.22 311.618 228.769 C 311.618 228.641 306.679 228.578 300.612 228.641 C 282.484 228.833 274.941 227.919 267.507 224.706 C 262.48 222.52 258.963 219.549 256.959 215.805 C 256.085 214.152 255.902 213.99 255.083 214.025 C 254.591 214.025 253.716 214.152 253.206 214.297 Z M 292.031 304.318 C 290.21 305.28 289.973 307.627 291.52 308.99 C 293.762 310.968 297.369 309.522 297.369 306.645 C 297.369 305.844 297.152 305.441 296.331 304.718 C 295.109 303.641 293.543 303.496 292.031 304.318 Z M 296.622 318.469 C 294.983 318.951 294.054 320.075 294.054 321.536 C 294.054 322.372 294.272 322.757 295.093 323.497 C 295.967 324.267 296.331 324.412 297.515 324.412 C 298.608 324.412 299.1 324.252 299.884 323.641 C 300.758 322.951 300.886 322.71 300.886 321.506 C 300.886 320.35 300.776 320.027 299.974 319.369 C 299.027 318.566 297.679 318.194 296.641 318.485 L 296.622 318.469 Z M 371.959 356.475 C 364.507 357.649 358.441 360.33 354.98 363.961 L 353.704 365.293 L 355.125 365.293 C 358.313 365.293 361.647 364.074 368.916 360.217 C 373.307 357.889 375.912 356.683 377.716 356.201 C 379.229 355.768 375.202 355.961 371.959 356.475 Z M 365.673 367.687 C 363.561 368.041 361.064 368.909 359.971 369.696 C 359.207 370.257 359.116 370.419 359.516 370.659 C 360.19 371.061 370.21 370.738 377.243 370.097 C 380.432 369.807 383.273 369.567 383.601 369.536 C 384.603 369.488 381.051 368.571 377.989 368.121 C 374.528 367.59 367.823 367.35 365.654 367.687 L 365.673 367.687 Z M 362.941 378.788 C 361.247 379.189 359.059 380.088 358.787 380.472 C 358.513 380.86 363.069 381.07 375.421 381.229 C 385.751 381.324 386.844 381.309 385.97 380.956 C 384.549 380.363 379.21 379.253 375.713 378.788 C 371.886 378.273 365.036 378.273 362.923 378.788 L 362.941 378.788 Z" style="fill: rgb(246, 246, 246);"/>
</svg>